PathFileType	4	(X/Y/Z)	walk-thru1-2-TP.trc
DataRate	CameraRate	NumFrames	NumMarkers	Units	OrigDataRate	OrigDataStartFrame	OrigNumFrames
120.00	120.00	       6	60	mm	120.00	331	       441
Frame#	Time	Top.Head			Front.Head			Rear.Head			Jaw			C7			R.Clavicle			L.Clavicle			R.Shoulder			L.Shoulder			R.Scapula			L.Scapula			R.Scap.Inf			R.Biceps.Lateral			R.Elbow			R.Elbow.Medial			R.Forearm			R.Ulna			R.Radius			R.Wrist			R.Thumb.M1			R.Thumb.M2			R.Thumb.M3			R.Finger3.M1			R.Finger3.M2			R.Finger3.M3			L.Biceps.Lateral			L.Elbow			L.Elbow.Medial			L.Forearm			L.Ulna			L.Radius			L.Wrist			L.Thumb.M1			L.Thumb.M2			L.Thumb.M3			L.Finger3.M1			L.Finger3.M2			L.Finger3.M3			V.Sacral			R.ASIS			L.ASIS			R.Thigh			R.Thigh.Front			R.Knee			R.Knee.Medial			R.Shank			R.Ankle			R.Ankle.Medial			R.Heel			R.Toe			R.MedFoot			L.Thigh			L.Knee			L.Knee.Medial			L.Shank			L.Ankle			L.Ankle.Medial			L.Heel			L.Toe			L.MedFoot			V_mid_ASIS			V_R_Knee_JC			V_L_Knee_JC			V_R_Elbow_JC			V_L_Elbow_JC			V_R_Ankle_JC			V_L_Ankle_JC			V_R_Wrist_JC			V_L_Wrist_JC			V_R_ScaTrpz_1stMC_JC			V_R_1stMC_1stPP_JC			V_R_1stPP_1stDP_JC			V_R_LunCap_3rdMC_JC			V_R_3rdMC_3rdPP_JC			V_R_3rdPP_3rdMP_JC			V_R_3rdMP_3rdDP_JC			V_L_ScaTrpz_1stMC_JC			V_L_1stMC_1stPP_JC			V_L_1stPP_1stDP_JC			V_L_LunCap_3rdMC_JC			V_L_3rdMC_3rdPP_JC			V_L_3rdPP_3rdMP_JC			V_L_3rdMP_3rdPP_JC			V_ROOT_JC			V_R_Hip_JC			V_L_Hip_JC			V_R_GlenHum_JC			V_L_GlenHum_JC			V_ForeHead_Ctr			V_Vertex			V_Sagit_Lambdoid_Suture			V_R_FrontoTemp			V_L_FrontoTemporal			V_R_ParietalOccip			V_L_ParietalOcciptal			V_R_Temporal			V_L_Temporal			V_mid_FrontRearHead			V_mid_RLGlenHumCtrs			V_C7_vert			V_C1_vert			V_Mid_Hip			
		X1	Y1	Z1	X2	Y2	Z2	X3	Y3	Z3	X4	Y4	Z4	X5	Y5	Z5	X6	Y6	Z6	X7	Y7	Z7	X8	Y8	Z8	X9	Y9	Z9	X10	Y10	Z10	X11	Y11	Z11	X12	Y12	Z12	X13	Y13	Z13	X14	Y14	Z14	X15	Y15	Z15	X16	Y16	Z16	X17	Y17	Z17	X18	Y18	Z18	X19	Y19	Z19	X20	Y20	Z20	X21	Y21	Z21	X22	Y22	Z22	X23	Y23	Z23	X24	Y24	Z24	X25	Y25	Z25	X26	Y26	Z26	X27	Y27	Z27	X28	Y28	Z28	X29	Y29	Z29	X30	Y30	Z30	X31	Y31	Z31	X32	Y32	Z32	X33	Y33	Z33	X34	Y34	Z34	X35	Y35	Z35	X36	Y36	Z36	X37	Y37	Z37	X38	Y38	Z38	X39	Y39	Z39	X40	Y40	Z40	X41	Y41	Z41	X42	Y42	Z42	X43	Y43	Z43	X44	Y44	Z44	X45	Y45	Z45	X46	Y46	Z46	X47	Y47	Z47	X48	Y48	Z48	X49	Y49	Z49	X50	Y50	Z50	X51	Y51	Z51	X52	Y52	Z52	X53	Y53	Z53	X54	Y54	Z54	X55	Y55	Z55	X56	Y56	Z56	X57	Y57	Z57	X58	Y58	Z58	X59	Y59	Z59	X60	Y60	Z60	

331	2.750	696.26361	36.93476	1564.10901	797.71466	35.47913	1463.32385	584.50787	31.19222	1483.24536	766.28864	21.46600	1322.82373	566.12286	11.98061	1371.79211	652.68719	-93.60644	1283.62207	660.54004	120.43577	1290.73303	606.95331	-173.07121	1279.71021	608.12402	211.21138	1290.97083	522.21881	-74.16194	1293.69836	516.60895	107.49857	1296.16321	476.71817	-58.51228	1211.94385	652.96973	-224.93291	1142.93018	664.90552	-250.82870	981.11658	635.93622	-184.51097	956.09027	761.53546	-236.55484	933.38379	763.16693	-261.06595	844.51019	838.04468	-213.30063	823.41858	847.39404	-252.32469	788.64374	878.86664	-212.28256	783.41278	900.90808	-195.85887	754.47766	920.12476	-183.04381	718.08069	889.21222	-262.06366	722.82385	903.30920	-241.44797	676.03265	903.33997	-218.32643	641.91833	584.28235	273.34357	1148.43030	534.28369	284.24365	1004.40839	519.28912	204.09055	995.42865	623.36316	272.62741	943.23029	614.42847	309.64044	852.16949	669.93933	255.39928	812.02771	677.87427	304.11786	788.03436	702.85132	263.27966	778.72302	716.40686	240.35298	740.28754	722.46814	237.12462	687.97369	712.94946	308.27612	705.14819	717.82281	297.48242	665.37402	708.31726	265.17447	630.09442	462.76108	20.96633	903.65497	657.96570	-134.90967	969.15747	644.57013	184.38393	958.65979	665.32861	-152.43890	577.97119	726.37061	-72.86159	491.31281	677.33246	-105.95374	440.58261	679.07849	3.78322	438.16641	656.14063	-50.32200	268.39801	557.85980	-60.73603	65.13123	574.30634	30.26777	83.28494	498.30930	-4.98373	42.95569	700.94666	-34.26269	38.10437	642.18707	8.35551	63.56200	728.54236	219.03476	595.90106	790.10181	200.54541	465.90167	810.89349	79.09922	450.87744	733.34082	137.63158	274.33618	606.32379	152.46921	114.10379	627.92059	63.66573	130.73100	545.33508	100.20339	107.87499	731.41718	113.82433	51.51358	694.02789	83.18489	86.24252																																																																																																																															
332	2.758	701.83423	37.83331	1563.82446	802.83612	36.21355	1462.58020	590.05145	31.22619	1483.35535	771.60486	20.56594	1322.52087	572.64874	10.82002	1371.74988	659.42584	-94.74081	1283.00684	666.40662	119.01379	1289.82910	612.90991	-173.00958	1279.25244	612.81610	210.79836	1290.77527	527.67645	-74.97875	1293.33044	521.88257	106.49694	1295.77051	483.04803	-58.04842	1211.87781	659.43964	-224.63222	1143.42493	673.14282	-251.18584	980.60266	644.49310	-182.64308	953.94464	769.26013	-236.94675	935.68555	772.85950	-260.50052	845.43365	848.84747	-213.47679	825.82697	857.62036	-251.51910	791.25824	889.85980	-212.21037	785.59723	911.20325	-194.50153	756.99994	931.05029	-181.99937	721.87579	900.22723	-262.45148	725.46936	916.09692	-241.24742	679.07513	913.96704	-217.65790	644.64337	588.46759	272.98203	1147.17285	537.82098	284.05103	1003.54584	524.44727	203.28058	995.48291	627.63538	271.24255	942.10425	617.67596	309.19357	852.13196	676.35358	256.78116	811.93097	682.50049	305.70624	787.57507	708.24963	264.14993	778.94800	722.31110	242.03188	741.17511	729.57379	238.10263	688.55286	717.30048	311.09125	705.11255	723.85779	299.49780	665.74536	715.23132	266.59723	629.90485	468.67941	22.31039	903.09698	662.71747	-136.07948	968.63788	649.49158	185.02859	957.76550	668.54370	-152.61682	577.78455	728.78674	-73.50291	490.66196	679.41315	-106.30706	439.87268	681.15021	3.64456	436.99911	657.89935	-50.39079	268.16394	557.90613	-60.48866	65.36253	574.79395	30.52826	84.33461	498.49643	-5.07442	42.97353	700.87054	-34.65001	38.03279	642.73743	8.63840	63.90330	736.10278	217.27953	596.73505	798.07922	198.40607	465.75012	818.54755	77.41826	452.61929	747.01648	137.28088	273.92706	626.29822	152.36841	109.65356	646.52570	64.24219	127.46755	565.38806	100.43494	100.63661	753.45050	114.98776	51.23618	715.13434	84.00567	84.21339																																																																																																																															
333	2.767	707.43463	37.96012	1563.18433	808.12677	35.80416	1462.66406	595.73401	32.03684	1482.69153	777.82373	21.06476	1322.32776	578.53320	12.87907	1371.29956	664.45380	-94.23031	1282.84119	671.97534	120.15229	1289.67297	618.53851	-173.79916	1279.06860	617.99512	210.82225	1289.90430	533.83258	-74.94862	1293.25598	527.13983	107.57461	1295.43640	488.52768	-59.15643	1211.45996	664.02612	-224.39684	1142.98047	681.29608	-250.84431	980.58337	653.54327	-183.05118	954.02173	777.87885	-237.04640	936.26672	782.00769	-260.10114	846.25128	857.76703	-211.98373	827.79401	867.54822	-252.37929	792.77936	900.29285	-212.02591	789.13641	922.42493	-193.23213	760.87390	942.54108	-182.13774	725.41730	911.53601	-261.59268	729.18872	927.28699	-240.22479	681.64728	927.42926	-217.12033	647.69470	594.31976	273.17871	1146.53186	543.33215	283.07794	1003.13531	529.18030	202.37881	994.14563	632.43219	272.32526	941.25378	622.52905	309.14932	850.66956	682.12598	256.97940	812.08148	687.30347	305.62570	787.35645	713.62146	264.21634	778.45343	728.55786	243.20967	740.08472	736.66119	239.02460	688.93335	722.76202	311.69977	705.10199	729.65326	301.09378	665.30432	720.63812	268.17236	629.28583	474.03360	22.89348	902.51062	669.58356	-136.67979	968.78528	654.68488	184.83575	957.10297	671.54462	-152.26921	577.18085	731.36621	-73.36243	488.90067	681.57227	-107.62083	439.90189	683.69812	3.93594	436.91757	659.33228	-50.68607	267.76093	558.24103	-60.50904	65.04884	572.84528	30.23249	83.61296	498.32962	-5.14041	43.08653	700.98370	-34.59641	38.17414	642.73743	8.63840	63.90330	744.08575	216.23811	596.62372	805.75500	196.90744	466.33615	826.36212	74.82942	454.40103	761.42096	136.58987	273.53653	646.11047	152.31934	104.35706	667.33575	63.34282	122.94293	584.36432	100.07799	93.83997	775.67786	115.73084	51.34396	736.04230	84.34694	82.75224																																																																																																																															
334	2.775	712.94855	38.21704	1562.66113	813.39972	36.80676	1462.08142	601.09320	32.10217	1481.94812	783.63696	20.74656	1322.08752	584.46930	13.27064	1371.08105	671.23773	-94.09377	1281.92993	677.08588	119.33508	1289.08313	624.57178	-173.31033	1278.94092	623.88995	211.68434	1289.28638	538.56799	-74.82127	1292.29895	532.52075	105.15920	1294.68213	494.49838	-58.05185	1211.37268	670.43408	-225.23306	1142.57080	688.44208	-249.75795	980.90839	659.89551	-182.87563	953.89117	786.59271	-236.80737	937.96857	791.87152	-259.86459	847.31757	867.29803	-211.93178	830.26208	877.63287	-250.01114	795.46313	909.98871	-210.47054	791.77856	932.62976	-192.14003	763.88037	953.55420	-181.86110	729.00769	922.17340	-260.53589	732.16956	938.59546	-240.12901	685.08612	938.92676	-215.79884	651.17542	598.55640	273.11401	1145.97961	547.40826	283.48587	1003.04370	534.67719	201.98108	993.16339	637.61871	272.79330	941.55634	628.02582	309.91251	850.85767	687.58081	257.28207	811.15167	692.87231	306.45386	786.71637	719.56323	265.93988	778.38373	734.13660	244.96451	739.01489	744.67053	239.30939	689.68854	727.74579	313.81943	705.15234	734.41742	303.10077	665.44873	728.33496	269.54645	629.94952	479.67648	22.83834	902.32819	676.31366	-135.71642	967.95990	661.45215	184.76416	956.69037	675.22437	-152.33997	576.59045	734.14667	-73.47946	488.06937	683.55487	-107.47174	439.29144	686.72607	2.61911	435.72675	658.70227	-50.24327	266.64041	558.32483	-60.41853	65.02217	572.75494	30.26081	84.74241	498.32962	-5.14041	43.08653	701.11578	-34.68846	38.00272	642.42242	8.55467	63.90492	748.89685	214.92073	596.83661	813.97046	195.73830	466.92291	834.26923	73.10877	455.03909	776.01941	135.13521	272.42285	666.11694	152.56035	100.02138	686.72949	62.26531	118.86699	606.54810	98.44391	85.84634	797.10095	116.05916	51.16872	756.93921	83.86602	81.85359																																																																																																																															
335	2.783	718.89807	38.57055	1562.06531	818.44904	37.04586	1461.30542	606.62927	32.51542	1481.69043	789.56805	20.82710	1321.15833	590.16290	10.31166	1370.96838	676.57184	-94.40902	1281.82153	683.11389	119.88828	1287.72314	630.13684	-173.92621	1278.94592	629.49353	211.45363	1288.70264	545.26672	-75.00731	1291.97693	539.01794	106.49536	1294.31702	500.52975	-58.16650	1211.00208	676.55505	-225.15155	1142.41724	695.44055	-251.31252	980.99713	669.04755	-181.60219	953.56403	794.27948	-235.12720	938.78308	800.92529	-258.03159	848.19165	876.12531	-210.73335	831.75891	887.87988	-249.77132	797.58063	919.69702	-209.71675	794.06299	943.20410	-192.48186	767.27173	963.76245	-180.47493	731.41132	932.18793	-259.77402	734.28558	949.96814	-238.23299	688.12823	951.37140	-214.24748	653.48920	604.49396	272.94196	1145.48206	552.96661	281.57758	1001.99353	540.51678	201.91748	992.56897	642.54596	272.16409	941.04907	633.40955	309.45715	849.68152	693.31024	258.60587	811.54291	697.19220	307.52866	786.14301	725.17029	266.59082	778.57703	741.47552	248.21143	740.84521	750.11469	239.80652	690.15790	732.64111	313.90634	704.16559	740.87213	303.20102	665.00659	733.60138	269.65515	629.39600	485.09842	22.41644	902.20093	682.67584	-136.13875	967.40167	666.91907	184.14522	955.76807	679.35974	-152.82869	575.91235	736.27686	-73.88309	487.24887	685.95337	-106.94831	438.39041	688.68292	2.82620	435.64514	661.12189	-50.63754	267.00385	558.38062	-60.21333	65.17905	573.22546	29.92530	83.99846	498.46399	-4.96052	43.26157	701.44202	-35.01328	37.84501	642.73669	8.75447	63.47422	755.91412	214.66045	597.09003	821.51984	193.13403	466.94312	842.13202	71.84999	455.51663	789.72858	134.37514	272.68069	686.76910	151.22246	95.96803	707.05511	63.18455	114.67531	628.30328	97.98637	79.73052	819.43628	115.65488	52.43752	777.96954	82.71833	80.34429																																																																																																																															
336	2.792	723.89685	38.37251	1562.07117	824.64337	37.23070	1460.85962	611.65063	32.35150	1481.00378	795.35309	21.63746	1321.35913	595.42865	11.68737	1370.21033	681.66211	-93.97417	1281.37671	688.61102	119.88673	1287.91602	636.59326	-173.50949	1278.18433	635.02393	210.62918	1288.14233	551.05188	-75.83088	1291.32666	544.28033	105.76911	1293.87793	505.98514	-59.70176	1210.15137	682.85162	-224.94135	1142.47522	702.96991	-251.04709	980.62982	674.89819	-180.69344	953.98029	802.49072	-235.52148	939.72772	809.59491	-258.52335	849.52405	885.80750	-209.92320	834.05078	896.78955	-247.71185	800.26794	928.83972	-209.29967	796.57489	952.06848	-191.23146	768.64648	973.93781	-179.86273	734.33441	943.09833	-259.30960	737.15839	961.67822	-236.65236	691.61481	962.26904	-213.99265	657.07196	609.75616	272.28055	1144.59436	558.41736	282.98215	1001.76855	546.63599	201.72734	992.24878	647.78198	272.32419	940.77228	639.35815	310.00467	849.37469	699.55902	258.49216	811.55737	702.98016	308.44461	785.55292	730.29926	267.72574	777.87946	746.94202	246.59842	740.98431	755.56708	239.23837	690.85309	739.15460	313.50345	704.15112	745.95459	303.16711	664.16174	739.97479	269.58676	628.08441	491.01666	24.11792	901.27203	682.00195	-137.83556	967.43494	672.75958	183.75250	955.09448	682.69946	-152.54317	574.95563	738.53918	-74.07867	486.08524	687.25574	-108.79014	438.30609	690.91425	2.74913	435.17932	662.42975	-50.53916	266.40689	558.77740	-60.78923	65.24890	573.60449	30.58808	83.88385	498.65829	-4.80088	43.68527	701.54761	-34.94873	37.84694	642.81207	9.10061	63.20569	761.59668	213.35786	596.27814	828.57385	191.60847	467.57190	848.41016	69.71906	456.48697	803.40100	132.44728	272.32660	706.31702	151.14645	92.23466	726.33673	62.46501	112.03447	648.13696	97.40788	74.32258	840.45251	117.02709	53.21048	798.98328	83.91597	79.57535																																																																																																																															
